<?xml version="1.0" encoding="us-ascii" standalone="no"?><svg xmlns="http://www.w3.org/2000/svg" xmlns:xlink="http://www.w3.org/1999/xlink" contentStyleType="text/css" height="701px" preserveAspectRatio="none" style="width:546px;height:701px;background:#FFFFFF;" version="1.1" viewBox="0 0 546 701" width="546px" zoomAndPan="magnify"><defs/><g><!--class ????????????--><g id="elem_&#1055;&#1086;&#1083;&#1100;&#1079;&#1086;&#1074;&#1072;&#1090;&#1077;&#1083;&#1100;"><rect codeLine="2" fill="#F1F1F1" height="163.418" id="&#1055;&#1086;&#1083;&#1100;&#1079;&#1086;&#1074;&#1072;&#1090;&#1077;&#1083;&#1100;" rx="2.5" ry="2.5" style="stroke:#181818;stroke-width:0.5;" width="127" x="243" y="7"/><ellipse cx="258" cy="23" fill="#ADD1B2" rx="11" ry="11" style="stroke:#181818;stroke-width:1.0;"/><path d="M260.4731,29.1431 Q259.8921,29.4419 259.2529,29.5913 Q258.6138,29.7407 257.9082,29.7407 Q255.4014,29.7407 254.0815,28.0889 Q252.7617,26.437 252.7617,23.3159 Q252.7617,20.1865 254.0815,18.5347 Q255.4014,16.8828 257.9082,16.8828 Q258.6138,16.8828 259.2612,17.0322 Q259.9087,17.1816 260.4731,17.4805 L260.4731,20.2031 Q259.8423,19.6221 259.2488,19.3523 Q258.6553,19.0825 258.0244,19.0825 Q256.6797,19.0825 255.9949,20.1492 Q255.3101,21.2158 255.3101,23.3159 Q255.3101,25.4077 255.9949,26.4744 Q256.6797,27.541 258.0244,27.541 Q258.6553,27.541 259.2488,27.2712 Q259.8423,27.0015 260.4731,26.4204 Z " fill="#000000"/><text fill="#000000" font-family="sans-serif" font-size="14" lengthAdjust="spacing" textLength="95" x="272" y="28.291">&#1055;&#1086;&#1083;&#1100;&#1079;&#1086;&#1074;&#1072;&#1090;&#1077;&#1083;&#1100;</text><line style="stroke:#181818;stroke-width:0.5;" x1="244" x2="369" y1="39" y2="39"/><rect fill="none" height="6" style="stroke:#C82930;stroke-width:1.0;" width="6" x="251" y="49.7441"/><text fill="#000000" font-family="sans-serif" font-size="14" lengthAdjust="spacing" textLength="39" x="263" y="56.5352">id: int</text><rect fill="none" height="6" style="stroke:#C82930;stroke-width:1.0;" width="6" x="251" y="66.2324"/><text fill="#000000" font-family="sans-serif" font-size="14" lengthAdjust="spacing" textLength="68" x="263" y="73.0234">&#1083;&#1086;&#1075;&#1080;&#1085;: str</text><rect fill="none" height="6" style="stroke:#C82930;stroke-width:1.0;" width="6" x="251" y="82.7207"/><text fill="#000000" font-family="sans-serif" font-size="14" lengthAdjust="spacing" textLength="57" x="263" y="89.5117">&#1060;&#1048;&#1054;: str</text><rect fill="none" height="6" style="stroke:#C82930;stroke-width:1.0;" width="6" x="251" y="99.209"/><text fill="#000000" font-family="sans-serif" font-size="14" lengthAdjust="spacing" textLength="63" x="263" y="106">email: str</text><rect fill="none" height="6" style="stroke:#C82930;stroke-width:1.0;" width="6" x="251" y="115.6973"/><text fill="#000000" font-family="sans-serif" font-size="14" lengthAdjust="spacing" textLength="92" x="263" y="122.4883">password: str</text><line style="stroke:#181818;stroke-width:0.5;" x1="244" x2="369" y1="129.4414" y2="129.4414"/><ellipse cx="254" cy="143.1855" fill="#84BE84" rx="3" ry="3" style="stroke:#038048;stroke-width:1.0;"/><text fill="#000000" font-family="sans-serif" font-size="14" lengthAdjust="spacing" textLength="44" x="263" y="146.9766">&#1074;&#1093;&#1086;&#1076;()</text><ellipse cx="254" cy="159.6738" fill="#84BE84" rx="3" ry="3" style="stroke:#038048;stroke-width:1.0;"/><text fill="#000000" font-family="sans-serif" font-size="14" lengthAdjust="spacing" textLength="54" x="263" y="163.4648">&#1074;&#1099;&#1093;&#1086;&#1076;()</text></g><!--class ???????--><g id="elem_&#1057;&#1090;&#1091;&#1076;&#1077;&#1085;&#1090;"><rect codeLine="12" fill="#F1F1F1" height="97.4648" id="&#1057;&#1090;&#1091;&#1076;&#1077;&#1085;&#1090;" rx="2.5" ry="2.5" style="stroke:#181818;stroke-width:0.5;" width="204" x="88.5" y="231.42"/><ellipse cx="157.75" cy="247.42" fill="#ADD1B2" rx="11" ry="11" style="stroke:#181818;stroke-width:1.0;"/><path d="M160.2231,253.5631 Q159.6421,253.8619 159.0029,254.0113 Q158.3638,254.1607 157.6582,254.1607 Q155.1514,254.1607 153.8315,252.5089 Q152.5117,250.857 152.5117,247.7359 Q152.5117,244.6065 153.8315,242.9547 Q155.1514,241.3028 157.6582,241.3028 Q158.3638,241.3028 159.0112,241.4522 Q159.6587,241.6016 160.2231,241.9005 L160.2231,244.6231 Q159.5923,244.0421 158.9988,243.7723 Q158.4053,243.5025 157.7744,243.5025 Q156.4297,243.5025 155.7449,244.5692 Q155.0601,245.6358 155.0601,247.7359 Q155.0601,249.8277 155.7449,250.8944 Q156.4297,251.961 157.7744,251.961 Q158.4053,251.961 158.9988,251.6912 Q159.5923,251.4215 160.2231,250.8404 Z " fill="#000000"/><text fill="#000000" font-family="sans-serif" font-size="14" lengthAdjust="spacing" textLength="57" x="178.25" y="252.711">&#1057;&#1090;&#1091;&#1076;&#1077;&#1085;&#1090;</text><line style="stroke:#181818;stroke-width:0.5;" x1="89.5" x2="291.5" y1="263.42" y2="263.42"/><line style="stroke:#181818;stroke-width:0.5;" x1="89.5" x2="291.5" y1="271.42" y2="271.42"/><ellipse cx="99.5" cy="285.1641" fill="#84BE84" rx="3" ry="3" style="stroke:#038048;stroke-width:1.0;"/><text fill="#000000" font-family="sans-serif" font-size="14" lengthAdjust="spacing" textLength="136" x="108.5" y="288.9552">&#1079;&#1072;&#1087;&#1080;&#1089;&#1072;&#1090;&#1100;&#1089;&#1103;&#1053;&#1072;&#1050;&#1091;&#1088;&#1089;()</text><ellipse cx="99.5" cy="301.6524" fill="#84BE84" rx="3" ry="3" style="stroke:#038048;stroke-width:1.0;"/><text fill="#000000" font-family="sans-serif" font-size="14" lengthAdjust="spacing" textLength="178" x="108.5" y="305.4434">&#1087;&#1086;&#1089;&#1084;&#1086;&#1090;&#1088;&#1077;&#1090;&#1100;&#1057;&#1077;&#1088;&#1090;&#1080;&#1092;&#1080;&#1082;&#1072;&#1090;()</text><ellipse cx="99.5" cy="318.1407" fill="#84BE84" rx="3" ry="3" style="stroke:#038048;stroke-width:1.0;"/><text fill="#000000" font-family="sans-serif" font-size="14" lengthAdjust="spacing" textLength="146" x="108.5" y="321.9317">&#1087;&#1086;&#1089;&#1084;&#1086;&#1090;&#1088;&#1077;&#1090;&#1100;&#1054;&#1094;&#1077;&#1085;&#1082;&#1080;()</text></g><!--class ?????????????--><g id="elem_&#1055;&#1088;&#1077;&#1087;&#1086;&#1076;&#1072;&#1074;&#1072;&#1090;&#1077;&#1083;&#1100;"><rect codeLine="19" fill="#F1F1F1" height="97.4648" id="&#1055;&#1088;&#1077;&#1087;&#1086;&#1076;&#1072;&#1074;&#1072;&#1090;&#1077;&#1083;&#1100;" rx="2.5" ry="2.5" style="stroke:#181818;stroke-width:0.5;" width="193" x="328" y="231.42"/><ellipse cx="367.3" cy="247.42" fill="#ADD1B2" rx="11" ry="11" style="stroke:#181818;stroke-width:1.0;"/><path d="M369.7731,253.5631 Q369.1921,253.8619 368.5529,254.0113 Q367.9138,254.1607 367.2082,254.1607 Q364.7014,254.1607 363.3815,252.5089 Q362.0617,250.857 362.0617,247.7359 Q362.0617,244.6065 363.3815,242.9547 Q364.7014,241.3028 367.2082,241.3028 Q367.9138,241.3028 368.5612,241.4522 Q369.2087,241.6016 369.7731,241.9005 L369.7731,244.6231 Q369.1423,244.0421 368.5488,243.7723 Q367.9553,243.5025 367.3244,243.5025 Q365.9797,243.5025 365.2949,244.5692 Q364.6101,245.6358 364.6101,247.7359 Q364.6101,249.8277 365.2949,250.8944 Q365.9797,251.961 367.3244,251.961 Q367.9553,251.961 368.5488,251.6912 Q369.1423,251.4215 369.7731,250.8404 Z " fill="#000000"/><text fill="#000000" font-family="sans-serif" font-size="14" lengthAdjust="spacing" textLength="107" x="386.7" y="252.711">&#1055;&#1088;&#1077;&#1087;&#1086;&#1076;&#1072;&#1074;&#1072;&#1090;&#1077;&#1083;&#1100;</text><line style="stroke:#181818;stroke-width:0.5;" x1="329" x2="520" y1="263.42" y2="263.42"/><line style="stroke:#181818;stroke-width:0.5;" x1="329" x2="520" y1="271.42" y2="271.42"/><ellipse cx="339" cy="285.1641" fill="#84BE84" rx="3" ry="3" style="stroke:#038048;stroke-width:1.0;"/><text fill="#000000" font-family="sans-serif" font-size="14" lengthAdjust="spacing" textLength="96" x="348" y="288.9552">&#1089;&#1086;&#1079;&#1076;&#1072;&#1090;&#1100;&#1050;&#1091;&#1088;&#1089;()</text><ellipse cx="339" cy="301.6524" fill="#84BE84" rx="3" ry="3" style="stroke:#038048;stroke-width:1.0;"/><text fill="#000000" font-family="sans-serif" font-size="14" lengthAdjust="spacing" textLength="134" x="348" y="305.4434">&#1087;&#1086;&#1089;&#1090;&#1072;&#1074;&#1080;&#1090;&#1100;&#1054;&#1094;&#1077;&#1085;&#1082;&#1080;()</text><ellipse cx="339" cy="318.1407" fill="#84BE84" rx="3" ry="3" style="stroke:#038048;stroke-width:1.0;"/><text fill="#000000" font-family="sans-serif" font-size="14" lengthAdjust="spacing" textLength="167" x="348" y="321.9317">&#1087;&#1086;&#1089;&#1084;&#1086;&#1090;&#1088;&#1077;&#1090;&#1100;&#1040;&#1085;&#1072;&#1083;&#1080;&#1090;&#1080;&#1082;&#1091;()</text></g><!--class ????--><g id="elem_&#1050;&#1091;&#1088;&#1089;"><rect codeLine="25" fill="#F1F1F1" height="130.4414" id="&#1050;&#1091;&#1088;&#1089;" rx="2.5" ry="2.5" style="stroke:#181818;stroke-width:0.5;" width="181" x="106" y="405.88"/><ellipse cx="176.25" cy="421.88" fill="#ADD1B2" rx="11" ry="11" style="stroke:#181818;stroke-width:1.0;"/><path d="M178.7231,428.0231 Q178.1421,428.3219 177.5029,428.4713 Q176.8638,428.6207 176.1582,428.6207 Q173.6514,428.6207 172.3315,426.9689 Q171.0117,425.317 171.0117,422.1959 Q171.0117,419.0665 172.3315,417.4147 Q173.6514,415.7628 176.1582,415.7628 Q176.8638,415.7628 177.5112,415.9122 Q178.1587,416.0616 178.7231,416.3605 L178.7231,419.0831 Q178.0923,418.5021 177.4988,418.2323 Q176.9053,417.9625 176.2744,417.9625 Q174.9297,417.9625 174.2449,419.0292 Q173.5601,420.0958 173.5601,422.1959 Q173.5601,424.2877 174.2449,425.3544 Q174.9297,426.421 176.2744,426.421 Q176.9053,426.421 177.4988,426.1512 Q178.0923,425.8815 178.7231,425.3004 Z " fill="#000000"/><text fill="#000000" font-family="sans-serif" font-size="14" lengthAdjust="spacing" textLength="32" x="196.75" y="427.171">&#1050;&#1091;&#1088;&#1089;</text><line style="stroke:#181818;stroke-width:0.5;" x1="107" x2="286" y1="437.88" y2="437.88"/><rect fill="none" height="6" style="stroke:#C82930;stroke-width:1.0;" width="6" x="114" y="448.6241"/><text fill="#000000" font-family="sans-serif" font-size="14" lengthAdjust="spacing" textLength="39" x="126" y="455.4152">id: int</text><rect fill="none" height="6" style="stroke:#C82930;stroke-width:1.0;" width="6" x="114" y="465.1124"/><text fill="#000000" font-family="sans-serif" font-size="14" lengthAdjust="spacing" textLength="91" x="126" y="471.9034">&#1085;&#1072;&#1079;&#1074;&#1072;&#1085;&#1080;&#1077;: str</text><rect fill="none" height="6" style="stroke:#C82930;stroke-width:1.0;" width="6" x="114" y="481.6007"/><text fill="#000000" font-family="sans-serif" font-size="14" lengthAdjust="spacing" textLength="94" x="126" y="488.3917">&#1086;&#1087;&#1080;&#1089;&#1072;&#1085;&#1080;&#1077;: str</text><rect fill="none" height="6" style="stroke:#C82930;stroke-width:1.0;" width="6" x="114" y="498.089"/><text fill="#000000" font-family="sans-serif" font-size="14" lengthAdjust="spacing" textLength="155" x="126" y="504.88">&#1076;&#1072;&#1090;&#1072;&#1055;&#1091;&#1073;&#1083;&#1080;&#1082;&#1072;&#1094;&#1080;&#1080;: date</text><line style="stroke:#181818;stroke-width:0.5;" x1="107" x2="286" y1="511.8331" y2="511.8331"/><ellipse cx="117" cy="525.5773" fill="#84BE84" rx="3" ry="3" style="stroke:#038048;stroke-width:1.0;"/><text fill="#000000" font-family="sans-serif" font-size="14" lengthAdjust="spacing" textLength="143" x="126" y="529.3683">&#1076;&#1086;&#1073;&#1072;&#1074;&#1080;&#1090;&#1100;&#1052;&#1072;&#1090;&#1077;&#1088;&#1080;&#1072;&#1083;()</text></g><!--class ??????--><g id="elem_&#1054;&#1094;&#1077;&#1085;&#1082;&#1072;"><rect codeLine="35" fill="#F1F1F1" height="97.4648" id="&#1054;&#1094;&#1077;&#1085;&#1082;&#1072;" rx="2.5" ry="2.5" style="stroke:#181818;stroke-width:0.5;" width="194" x="345.5" y="422.37"/><ellipse cx="411.75" cy="438.37" fill="#ADD1B2" rx="11" ry="11" style="stroke:#181818;stroke-width:1.0;"/><path d="M414.2231,444.5131 Q413.6421,444.8119 413.0029,444.9613 Q412.3638,445.1107 411.6582,445.1107 Q409.1514,445.1107 407.8315,443.4589 Q406.5117,441.807 406.5117,438.6859 Q406.5117,435.5565 407.8315,433.9047 Q409.1514,432.2528 411.6582,432.2528 Q412.3638,432.2528 413.0112,432.4022 Q413.6587,432.5516 414.2231,432.8505 L414.2231,435.5731 Q413.5923,434.9921 412.9988,434.7223 Q412.4053,434.4525 411.7744,434.4525 Q410.4297,434.4525 409.7449,435.5192 Q409.0601,436.5858 409.0601,438.6859 Q409.0601,440.7777 409.7449,441.8444 Q410.4297,442.911 411.7744,442.911 Q412.4053,442.911 412.9988,442.6412 Q413.5923,442.3715 414.2231,441.7904 Z " fill="#000000"/><text fill="#000000" font-family="sans-serif" font-size="14" lengthAdjust="spacing" textLength="53" x="432.25" y="443.661">&#1054;&#1094;&#1077;&#1085;&#1082;&#1072;</text><line style="stroke:#181818;stroke-width:0.5;" x1="346.5" x2="538.5" y1="454.37" y2="454.37"/><rect fill="none" height="6" style="stroke:#C82930;stroke-width:1.0;" width="6" x="353.5" y="465.1141"/><text fill="#000000" font-family="sans-serif" font-size="14" lengthAdjust="spacing" textLength="39" x="365.5" y="471.9052">id: int</text><rect fill="none" height="6" style="stroke:#C82930;stroke-width:1.0;" width="6" x="353.5" y="481.6024"/><text fill="#000000" font-family="sans-serif" font-size="14" lengthAdjust="spacing" textLength="91" x="365.5" y="488.3934">&#1079;&#1085;&#1072;&#1095;&#1077;&#1085;&#1080;&#1077;: str</text><rect fill="none" height="6" style="stroke:#C82930;stroke-width:1.0;" width="6" x="353.5" y="498.0907"/><text fill="#000000" font-family="sans-serif" font-size="14" lengthAdjust="spacing" textLength="168" x="365.5" y="504.8817">&#1076;&#1072;&#1090;&#1072;&#1055;&#1088;&#1086;&#1089;&#1090;&#1072;&#1074;&#1083;&#1077;&#1085;&#1080;&#1103;: date</text><line style="stroke:#181818;stroke-width:0.5;" x1="346.5" x2="538.5" y1="511.8348" y2="511.8348"/></g><!--class ?????--><g id="elem_&#1054;&#1090;&#1079;&#1099;&#1074;"><rect codeLine="41" fill="#F1F1F1" height="97.4648" id="&#1054;&#1090;&#1079;&#1099;&#1074;" rx="2.5" ry="2.5" style="stroke:#181818;stroke-width:0.5;" width="181" x="7" y="597.33"/><ellipse cx="72.25" cy="613.33" fill="#ADD1B2" rx="11" ry="11" style="stroke:#181818;stroke-width:1.0;"/><path d="M74.7231,619.4731 Q74.1421,619.7719 73.5029,619.9213 Q72.8638,620.0707 72.1582,620.0707 Q69.6514,620.0707 68.3315,618.4189 Q67.0117,616.767 67.0117,613.6459 Q67.0117,610.5165 68.3315,608.8647 Q69.6514,607.2128 72.1582,607.2128 Q72.8638,607.2128 73.5112,607.3622 Q74.1587,607.5116 74.7231,607.8105 L74.7231,610.5331 Q74.0923,609.9521 73.4988,609.6823 Q72.9053,609.4125 72.2744,609.4125 Q70.9297,609.4125 70.2449,610.4792 Q69.5601,611.5458 69.5601,613.6459 Q69.5601,615.7377 70.2449,616.8044 Q70.9297,617.871 72.2744,617.871 Q72.9053,617.871 73.4988,617.6012 Q74.0923,617.3315 74.7231,616.7504 Z " fill="#000000"/><text fill="#000000" font-family="sans-serif" font-size="14" lengthAdjust="spacing" textLength="42" x="92.75" y="618.621">&#1054;&#1090;&#1079;&#1099;&#1074;</text><line style="stroke:#181818;stroke-width:0.5;" x1="8" x2="187" y1="629.33" y2="629.33"/><rect fill="none" height="6" style="stroke:#C82930;stroke-width:1.0;" width="6" x="15" y="640.0741"/><text fill="#000000" font-family="sans-serif" font-size="14" lengthAdjust="spacing" textLength="39" x="27" y="646.8652">id: int</text><rect fill="none" height="6" style="stroke:#C82930;stroke-width:1.0;" width="6" x="15" y="656.5624"/><text fill="#000000" font-family="sans-serif" font-size="14" lengthAdjust="spacing" textLength="113" x="27" y="663.3534">&#1090;&#1077;&#1082;&#1089;&#1090;&#1054;&#1090;&#1079;&#1099;&#1074;&#1072;: str</text><rect fill="none" height="6" style="stroke:#C82930;stroke-width:1.0;" width="6" x="15" y="673.0507"/><text fill="#000000" font-family="sans-serif" font-size="14" lengthAdjust="spacing" textLength="155" x="27" y="679.8417">&#1076;&#1072;&#1090;&#1072;&#1055;&#1091;&#1073;&#1083;&#1080;&#1082;&#1072;&#1094;&#1080;&#1080;: date</text><line style="stroke:#181818;stroke-width:0.5;" x1="8" x2="187" y1="686.7948" y2="686.7948"/></g><!--class ??????????--><g id="elem_&#1057;&#1077;&#1088;&#1090;&#1080;&#1092;&#1080;&#1082;&#1072;&#1090;"><rect codeLine="47" fill="#F1F1F1" height="80.9766" id="&#1057;&#1077;&#1088;&#1090;&#1080;&#1092;&#1080;&#1082;&#1072;&#1090;" rx="2.5" ry="2.5" style="stroke:#181818;stroke-width:0.5;" width="147" x="223" y="605.57"/><ellipse cx="251.05" cy="621.57" fill="#ADD1B2" rx="11" ry="11" style="stroke:#181818;stroke-width:1.0;"/><path d="M253.5231,627.7131 Q252.9421,628.0119 252.3029,628.1613 Q251.6638,628.3107 250.9582,628.3107 Q248.4514,628.3107 247.1315,626.6589 Q245.8117,625.007 245.8117,621.8859 Q245.8117,618.7565 247.1315,617.1047 Q248.4514,615.4528 250.9582,615.4528 Q251.6638,615.4528 252.3112,615.6022 Q252.9587,615.7516 253.5231,616.0505 L253.5231,618.7731 Q252.8923,618.1921 252.2988,617.9223 Q251.7053,617.6525 251.0744,617.6525 Q249.7297,617.6525 249.0449,618.7192 Q248.3601,619.7858 248.3601,621.8859 Q248.3601,623.9777 249.0449,625.0444 Q249.7297,626.111 251.0744,626.111 Q251.7053,626.111 252.2988,625.8412 Q252.8923,625.5715 253.5231,624.9904 Z " fill="#000000"/><text fill="#000000" font-family="sans-serif" font-size="14" lengthAdjust="spacing" textLength="86" x="267.95" y="626.861">&#1057;&#1077;&#1088;&#1090;&#1080;&#1092;&#1080;&#1082;&#1072;&#1090;</text><line style="stroke:#181818;stroke-width:0.5;" x1="224" x2="369" y1="637.57" y2="637.57"/><rect fill="none" height="6" style="stroke:#C82930;stroke-width:1.0;" width="6" x="231" y="648.3141"/><text fill="#000000" font-family="sans-serif" font-size="14" lengthAdjust="spacing" textLength="39" x="243" y="655.1052">id: int</text><rect fill="none" height="6" style="stroke:#C82930;stroke-width:1.0;" width="6" x="231" y="664.8024"/><text fill="#000000" font-family="sans-serif" font-size="14" lengthAdjust="spacing" textLength="121" x="243" y="671.5934">&#1076;&#1072;&#1090;&#1072;&#1042;&#1099;&#1076;&#1072;&#1095;&#1080;: date</text><line style="stroke:#181818;stroke-width:0.5;" x1="224" x2="369" y1="678.5466" y2="678.5466"/></g><!--reverse link ???????????? to ???????--><g id="link_&#1055;&#1086;&#1083;&#1100;&#1079;&#1086;&#1074;&#1072;&#1090;&#1077;&#1083;&#1100;_&#1057;&#1090;&#1091;&#1076;&#1077;&#1085;&#1090;"><path codeLine="52" d="M247.4039,186.223 C234.8639,206.713 231.18,212.71 219.99,230.99 " fill="none" id="&#1055;&#1086;&#1083;&#1100;&#1079;&#1086;&#1074;&#1072;&#1090;&#1077;&#1083;&#1100;-backto-&#1057;&#1090;&#1091;&#1076;&#1077;&#1085;&#1090;" style="stroke:#181818;stroke-width:1.0;"/><polygon fill="none" points="256.8,170.87,242.2862,183.0909,252.5216,189.355,256.8,170.87" style="stroke:#181818;stroke-width:1.0;"/></g><!--reverse link ???????????? to ?????????????--><g id="link_&#1055;&#1086;&#1083;&#1100;&#1079;&#1086;&#1074;&#1072;&#1090;&#1077;&#1083;&#1100;_&#1055;&#1088;&#1077;&#1087;&#1086;&#1076;&#1072;&#1074;&#1072;&#1090;&#1077;&#1083;&#1100;"><path codeLine="53" d="M366.5752,186.1494 C379.3352,206.6394 383.12,212.71 394.5,230.99 " fill="none" id="&#1055;&#1086;&#1083;&#1100;&#1079;&#1086;&#1074;&#1072;&#1090;&#1077;&#1083;&#1100;-backto-&#1055;&#1088;&#1077;&#1087;&#1086;&#1076;&#1072;&#1074;&#1072;&#1090;&#1077;&#1083;&#1100;" style="stroke:#181818;stroke-width:1.0;"/><polygon fill="none" points="357.06,170.87,361.482,189.3212,371.6683,182.9777,357.06,170.87" style="stroke:#181818;stroke-width:1.0;"/></g><!--reverse link ??????? to ??????--><g id="link_&#1057;&#1090;&#1091;&#1076;&#1077;&#1085;&#1090;_&#1054;&#1094;&#1077;&#1085;&#1082;&#1072;"><path codeLine="56" d="M231.6069,338.6197 C244.3169,354.6797 252.22,362.47 268.5,375.88 C291.57,394.89 319.05,411.86 345.29,425.98 " fill="none" id="&#1057;&#1090;&#1091;&#1076;&#1077;&#1085;&#1090;-backto-&#1054;&#1094;&#1077;&#1085;&#1082;&#1072;" style="stroke:#181818;stroke-width:1.0;"/><polygon fill="#181818" points="224.16,329.21,224.7469,336.3972,231.6069,338.6197,231.02,331.4326,224.16,329.21" style="stroke:#181818;stroke-width:1.0;"/><text fill="#000000" font-family="sans-serif" font-size="13" lengthAdjust="spacing" textLength="58" x="269.5" y="372.4484">&#1087;&#1086;&#1083;&#1091;&#1095;&#1072;&#1077;&#1090;</text><text fill="#000000" font-family="sans-serif" font-size="13" lengthAdjust="spacing" textLength="8" x="220.1456" y="349.3991">1</text><text fill="#000000" font-family="sans-serif" font-size="13" lengthAdjust="spacing" textLength="6" x="331.6177" y="419.5313">*</text></g><!--reverse link ???? to ?????--><g id="link_&#1050;&#1091;&#1088;&#1089;_&#1054;&#1090;&#1079;&#1099;&#1074;"><path codeLine="57" d="M153.678,546.9241 C142.188,566.9941 135.68,578.35 124.96,597.09 " fill="none" id="&#1050;&#1091;&#1088;&#1089;-backto-&#1054;&#1090;&#1079;&#1099;&#1074;" style="stroke:#181818;stroke-width:1.0;"/><polygon fill="#181818" points="159.64,536.51,153.1876,539.7297,153.678,546.9241,160.1304,543.7044,159.64,536.51" style="stroke:#181818;stroke-width:1.0;"/><text fill="#000000" font-family="sans-serif" font-size="13" lengthAdjust="spacing" textLength="8" x="147.1709" y="557.0698">1</text><text fill="#000000" font-family="sans-serif" font-size="13" lengthAdjust="spacing" textLength="6" x="122.3997" y="586.7388">*</text></g><!--link ??????? to ????--><g id="link_&#1057;&#1090;&#1091;&#1076;&#1077;&#1085;&#1090;_&#1050;&#1091;&#1088;&#1089;"><path codeLine="58" d="M152.13,329.38 C144.76,343.88 140.44,360.13 144.5,375.88 C147.06,385.83 148.3949,390.4219 152.8749,400.0319 " fill="none" id="&#1057;&#1090;&#1091;&#1076;&#1077;&#1085;&#1090;-to-&#1050;&#1091;&#1088;&#1089;" style="stroke:#181818;stroke-width:1.0;"/><polygon fill="#181818" points="155.41,405.47,155.2327,395.6227,153.2974,400.9382,147.9819,399.0029,155.41,405.47" style="stroke:#181818;stroke-width:1.0;"/><text fill="#000000" font-family="sans-serif" font-size="13" lengthAdjust="spacing" textLength="86" x="145.5" y="372.4484">&#1079;&#1072;&#1087;&#1080;&#1089;&#1099;&#1074;&#1072;&#1077;&#1090;&#1089;&#1103;</text><text fill="#000000" font-family="sans-serif" font-size="13" lengthAdjust="spacing" textLength="8" x="138.4365" y="349.592">1</text><text fill="#000000" font-family="sans-serif" font-size="13" lengthAdjust="spacing" textLength="6" x="144.5877" y="395.0567">*</text></g><!--link ????????????? to ????--><g id="link_&#1055;&#1088;&#1077;&#1087;&#1086;&#1076;&#1072;&#1074;&#1072;&#1090;&#1077;&#1083;&#1100;_&#1050;&#1091;&#1088;&#1089;"><path codeLine="59" d="M383.98,329.01 C369.69,344.71 353.05,361.74 336.5,375.88 C321.25,388.92 309.0526,398.2996 292.1626,410.0696 " fill="none" id="&#1055;&#1088;&#1077;&#1087;&#1086;&#1076;&#1072;&#1074;&#1072;&#1090;&#1077;&#1083;&#1100;-to-&#1050;&#1091;&#1088;&#1089;" style="stroke:#181818;stroke-width:1.0;"/><polygon fill="#181818" points="287.24,413.5,296.9109,411.6362,291.3422,410.6413,292.337,405.0726,287.24,413.5" style="stroke:#181818;stroke-width:1.0;"/><text fill="#000000" font-family="sans-serif" font-size="13" lengthAdjust="spacing" textLength="50" x="355.76" y="372.4484">&#1089;&#1086;&#1079;&#1076;&#1072;&#1077;&#1090;</text><text fill="#000000" font-family="sans-serif" font-size="13" lengthAdjust="spacing" textLength="8" x="369.7194" y="349.5255">1</text><text fill="#000000" font-family="sans-serif" font-size="13" lengthAdjust="spacing" textLength="6" x="295.0028" y="405.6901">*</text></g><!--reverse link ???? to ??????????--><g id="link_&#1050;&#1091;&#1088;&#1089;_&#1057;&#1077;&#1088;&#1090;&#1080;&#1092;&#1080;&#1082;&#1072;&#1090;"><path codeLine="60" d="M239.7441,546.8999 C253.0641,569.9499 261.69,584.85 273.46,605.22 " fill="none" id="&#1050;&#1091;&#1088;&#1089;-backto-&#1057;&#1077;&#1088;&#1090;&#1080;&#1092;&#1080;&#1082;&#1072;&#1090;" style="stroke:#181818;stroke-width:1.0;"/><polygon fill="#181818" points="233.74,536.51,233.2787,543.7063,239.7441,546.8999,240.2054,539.7036,233.74,536.51" style="stroke:#181818;stroke-width:1.0;"/><text fill="#000000" font-family="sans-serif" font-size="13" lengthAdjust="spacing" textLength="8" x="229.3756" y="557.0698">1</text><text fill="#000000" font-family="sans-serif" font-size="13" lengthAdjust="spacing" textLength="8" x="260.9815" y="594.808">1</text></g><!--link ????????????? to ??????--><g id="link_&#1055;&#1088;&#1077;&#1087;&#1086;&#1076;&#1072;&#1074;&#1072;&#1090;&#1077;&#1083;&#1100;_&#1054;&#1094;&#1077;&#1085;&#1082;&#1072;"><path codeLine="61" d="M429.09,329.32 C431.8,357.75 434.6403,387.6371 437.3503,416.0471 " fill="none" id="&#1055;&#1088;&#1077;&#1087;&#1086;&#1076;&#1072;&#1074;&#1072;&#1090;&#1077;&#1083;&#1100;-to-&#1054;&#1094;&#1077;&#1085;&#1082;&#1072;" style="stroke:#181818;stroke-width:1.0;"/><polygon fill="#181818" points="437.92,422.02,441.0473,412.6808,437.4452,417.0426,433.0835,413.4405,437.92,422.02" style="stroke:#181818;stroke-width:1.0;"/><text fill="#000000" font-family="sans-serif" font-size="13" lengthAdjust="spacing" textLength="41" x="434.5" y="372.4484">&#1089;&#1090;&#1072;&#1074;&#1080;&#1090;</text><text fill="#000000" font-family="sans-serif" font-size="13" lengthAdjust="spacing" textLength="8" x="421.1693" y="349.5239">1</text><text fill="#000000" font-family="sans-serif" font-size="13" lengthAdjust="spacing" textLength="6" x="430.8541" y="411.6533">*</text></g><!--SRC=[bPFDJi904CVlVOeD9p_IWzV6-2v4F93WHuJ4Wvf0KJnWWl5aZ4fCV8229Ts0uYlCl97_sRPqmIug1xQTpip_DpCx-urgiwbeI7EQyIqbECSKSKWJULVddiBFL_LQeEf7hUoDPd1x9qsVWMgsJdFh6ptGYsqvEApM6xRX169dnwUrmhQjQCpNI1TlR1Q6VcvIngQyIsy_1NtbaBiK0- -JmmmF8Gb5z4MQEyBEjzpX0Jt3ziXTRdEdoFr5SpXzu3_aDat4cLvnjb6ovYlKD9KKkR8ZueLxGW1VdQKMn9nnA7uI1ywef9tR2WddO8vJMWSbeYHQ_rHSotO7hmWJqb8HJRcBj0LR9kKQh8GcWemdJPEbySxp3fTyCvNWon336OcuQMCFfmvKhTewo8bZf1bPTJsbtG6z5cgmUXPjKNNa8aw4cM-CcvkgRJLqblho82EpvK9Ak4zZXvYPuzGaMhXIzCz6578bzyu8sx9Modl8nQPMAvLpStSlV7zbNNvpTjvRp6HbyIex5RM5cCfMPNbAWRcK2Eg2Cv8hwItkt4fGri2orBw_bthbeO6rucdNpMt7cdjhrgqiLM0jdmCFPzbi_gnazKFKYZt-1W00]--></g></svg>