<?xml version="1.0" encoding="us-ascii" standalone="no"?><svg xmlns="http://www.w3.org/2000/svg" xmlns:xlink="http://www.w3.org/1999/xlink" contentStyleType="text/css" height="534px" preserveAspectRatio="none" style="width:954px;height:534px;background:#FFFFFF;" version="1.1" viewBox="0 0 954 534" width="954px" zoomAndPan="magnify"><defs/><g><rect fill="#FFFFFF" height="302.75" style="stroke:#181818;stroke-width:1.0;" width="10" x="626.5" y="142.1094"/><rect fill="none" height="237.4395" style="stroke:#000000;stroke-width:1.5;" width="937" x="10" y="199.4199"/><line style="stroke:#181818;stroke-width:0.5;stroke-dasharray:5.0,5.0;" x1="76" x2="76" y1="81.4883" y2="453.8594"/><line style="stroke:#181818;stroke-width:0.5;stroke-dasharray:5.0,5.0;" x1="394.5" x2="394.5" y1="81.4883" y2="453.8594"/><line style="stroke:#181818;stroke-width:0.5;stroke-dasharray:5.0,5.0;" x1="631" x2="631" y1="81.4883" y2="453.8594"/><line style="stroke:#181818;stroke-width:0.5;stroke-dasharray:5.0,5.0;" x1="865" x2="865" y1="81.4883" y2="453.8594"/><text fill="#000000" font-family="sans-serif" font-size="14" lengthAdjust="spacing" textLength="107" x="20" y="78.5352">&#1055;&#1088;&#1077;&#1087;&#1086;&#1076;&#1072;&#1074;&#1072;&#1090;&#1077;&#1083;&#1100;</text><ellipse cx="76.5" cy="13.5" fill="#E2E2F0" rx="8" ry="8" style="stroke:#181818;stroke-width:0.5;"/><path d="M76.5,21.5 L76.5,48.5 M63.5,29.5 L89.5,29.5 M76.5,48.5 L63.5,63.5 M76.5,48.5 L89.5,63.5 " fill="none" style="stroke:#181818;stroke-width:0.5;"/><text fill="#000000" font-family="sans-serif" font-size="14" lengthAdjust="spacing" textLength="107" x="20" y="466.3945">&#1055;&#1088;&#1077;&#1087;&#1086;&#1076;&#1072;&#1074;&#1072;&#1090;&#1077;&#1083;&#1100;</text><ellipse cx="76.5" cy="477.8477" fill="#E2E2F0" rx="8" ry="8" style="stroke:#181818;stroke-width:0.5;"/><path d="M76.5,485.8477 L76.5,512.8477 M63.5,493.8477 L89.5,493.8477 M76.5,512.8477 L63.5,527.8477 M76.5,512.8477 L89.5,527.8477 " fill="none" style="stroke:#181818;stroke-width:0.5;"/><rect fill="#E2E2F0" height="30.4883" rx="2.5" ry="2.5" style="stroke:#181818;stroke-width:0.5;" width="92" x="348.5" y="50"/><text fill="#000000" font-family="sans-serif" font-size="14" lengthAdjust="spacing" textLength="78" x="355.5" y="70.5352">&#1048;&#1085;&#1090;&#1077;&#1088;&#1092;&#1077;&#1081;&#1089;</text><rect fill="#E2E2F0" height="30.4883" rx="2.5" ry="2.5" style="stroke:#181818;stroke-width:0.5;" width="92" x="348.5" y="452.8594"/><text fill="#000000" font-family="sans-serif" font-size="14" lengthAdjust="spacing" textLength="78" x="355.5" y="473.3945">&#1048;&#1085;&#1090;&#1077;&#1088;&#1092;&#1077;&#1081;&#1089;</text><rect fill="#E2E2F0" height="30.4883" rx="2.5" ry="2.5" style="stroke:#181818;stroke-width:0.5;" width="73" x="595" y="50"/><text fill="#000000" font-family="sans-serif" font-size="14" lengthAdjust="spacing" textLength="59" x="602" y="70.5352">&#1057;&#1080;&#1089;&#1090;&#1077;&#1084;&#1072;</text><rect fill="#E2E2F0" height="30.4883" rx="2.5" ry="2.5" style="stroke:#181818;stroke-width:0.5;" width="73" x="595" y="452.8594"/><text fill="#000000" font-family="sans-serif" font-size="14" lengthAdjust="spacing" textLength="59" x="602" y="473.3945">&#1057;&#1080;&#1089;&#1090;&#1077;&#1084;&#1072;</text><text fill="#000000" font-family="sans-serif" font-size="14" lengthAdjust="spacing" textLength="137" x="794" y="78.5352">&#1061;&#1088;&#1072;&#1085;&#1080;&#1083;&#1080;&#1097;&#1077; &#1092;&#1072;&#1081;&#1083;&#1086;&#1074;</text><path d="M847.5,29 C847.5,19 865.5,19 865.5,19 C865.5,19 883.5,19 883.5,29 L883.5,55 C883.5,65 865.5,65 865.5,65 C865.5,65 847.5,65 847.5,55 L847.5,29 " fill="#E2E2F0" style="stroke:#181818;stroke-width:1.5;"/><path d="M847.5,29 C847.5,39 865.5,39 865.5,39 C865.5,39 883.5,39 883.5,29 " fill="none" style="stroke:#181818;stroke-width:1.5;"/><text fill="#000000" font-family="sans-serif" font-size="14" lengthAdjust="spacing" textLength="137" x="794" y="466.3945">&#1061;&#1088;&#1072;&#1085;&#1080;&#1083;&#1080;&#1097;&#1077; &#1092;&#1072;&#1081;&#1083;&#1086;&#1074;</text><path d="M847.5,479.3477 C847.5,469.3477 865.5,469.3477 865.5,469.3477 C865.5,469.3477 883.5,469.3477 883.5,479.3477 L883.5,505.3477 C883.5,515.3477 865.5,515.3477 865.5,515.3477 C865.5,515.3477 847.5,515.3477 847.5,505.3477 L847.5,479.3477 " fill="#E2E2F0" style="stroke:#181818;stroke-width:1.5;"/><path d="M847.5,479.3477 C847.5,489.3477 865.5,489.3477 865.5,489.3477 C865.5,489.3477 883.5,489.3477 883.5,479.3477 " fill="none" style="stroke:#181818;stroke-width:1.5;"/><rect fill="#FFFFFF" height="302.75" style="stroke:#181818;stroke-width:1.0;" width="10" x="626.5" y="142.1094"/><polygon fill="#181818" points="382.5,108.7988,392.5,112.7988,382.5,116.7988,386.5,112.7988" style="stroke:#181818;stroke-width:1.0;"/><line style="stroke:#181818;stroke-width:1.0;" x1="76.5" x2="388.5" y1="112.7988" y2="112.7988"/><text fill="#000000" font-family="sans-serif" font-size="13" lengthAdjust="spacing" textLength="294" x="83.5" y="108.0566">&#1087;&#1077;&#1088;&#1077;&#1085;&#1077;&#1089;&#1090;&#1080; &#1074;&#1080;&#1076;&#1077;&#1086; &#1080; &#1085;&#1072;&#1078;&#1072;&#1090;&#1100; &#1082;&#1085;&#1086;&#1087;&#1082;&#1091; "&#1047;&#1072;&#1075;&#1088;&#1091;&#1079;&#1080;&#1090;&#1100;"</text><polygon fill="#181818" points="614.5,138.1094,624.5,142.1094,614.5,146.1094,618.5,142.1094" style="stroke:#181818;stroke-width:1.0;"/><line style="stroke:#181818;stroke-width:1.0;" x1="394.5" x2="620.5" y1="142.1094" y2="142.1094"/><text fill="#000000" font-family="sans-serif" font-size="13" lengthAdjust="spacing" textLength="96" x="401.5" y="137.3672">&#1087;&#1077;&#1088;&#1077;&#1076;&#1072;&#1090;&#1100; &#1092;&#1072;&#1081;&#1083;</text><line style="stroke:#181818;stroke-width:1.0;" x1="636.5" x2="678.5" y1="171.4199" y2="171.4199"/><line style="stroke:#181818;stroke-width:1.0;" x1="678.5" x2="678.5" y1="171.4199" y2="184.4199"/><line style="stroke:#181818;stroke-width:1.0;" x1="637.5" x2="678.5" y1="184.4199" y2="184.4199"/><polygon fill="#181818" points="647.5,180.4199,637.5,184.4199,647.5,188.4199,643.5,184.4199" style="stroke:#181818;stroke-width:1.0;"/><text fill="#000000" font-family="sans-serif" font-size="13" lengthAdjust="spacing" textLength="119" x="643.5" y="166.6777">&#1087;&#1088;&#1086;&#1074;&#1077;&#1088;&#1080;&#1090;&#1100; &#1092;&#1086;&#1088;&#1084;&#1072;&#1090;</text><path d="M10,199.4199 L72,199.4199 L72,206.7305 L62,216.7305 L10,216.7305 L10,199.4199 " fill="#EEEEEE" style="stroke:#000000;stroke-width:1.5;"/><rect fill="none" height="237.4395" style="stroke:#000000;stroke-width:1.5;" width="937" x="10" y="199.4199"/><text fill="#000000" font-family="sans-serif" font-size="13" font-weight="bold" lengthAdjust="spacing" textLength="17" x="25" y="212.9883">alt</text><text fill="#000000" font-family="sans-serif" font-size="11" font-weight="bold" lengthAdjust="spacing" textLength="125" x="87" y="212.0547">[&#1082;&#1086;&#1088;&#1088;&#1077;&#1082;&#1090;&#1085;&#1099;&#1081; &#1092;&#1086;&#1088;&#1084;&#1072;&#1090;]</text><polygon fill="#181818" points="853.5,234.041,863.5,238.041,853.5,242.041,857.5,238.041" style="stroke:#181818;stroke-width:1.0;"/><line style="stroke:#181818;stroke-width:1.0;" x1="636.5" x2="859.5" y1="238.041" y2="238.041"/><text fill="#000000" font-family="sans-serif" font-size="13" lengthAdjust="spacing" textLength="203" x="643.5" y="233.2988">&#1089;&#1086;&#1093;&#1088;&#1072;&#1085;&#1080;&#1090;&#1100; &#1074;&#1086; &#1074;&#1088;&#1077;&#1084;&#1077;&#1085;&#1085;&#1091;&#1102; &#1087;&#1072;&#1087;&#1082;&#1091;</text><polygon fill="#181818" points="405.5,263.3516,395.5,267.3516,405.5,271.3516,401.5,267.3516" style="stroke:#181818;stroke-width:1.0;"/><line style="stroke:#181818;stroke-width:1.0;" x1="399.5" x2="625.5" y1="267.3516" y2="267.3516"/><text fill="#000000" font-family="sans-serif" font-size="13" lengthAdjust="spacing" textLength="94" x="411.5" y="262.6094">&#1060;&#1072;&#1081;&#1083; &#1079;&#1072;&#1075;&#1088;&#1091;&#1078;&#1077;&#1085;</text><polygon fill="#181818" points="382.5,292.6621,392.5,296.6621,382.5,300.6621,386.5,296.6621" style="stroke:#181818;stroke-width:1.0;"/><line style="stroke:#181818;stroke-width:1.0;" x1="76.5" x2="388.5" y1="296.6621" y2="296.6621"/><text fill="#000000" font-family="sans-serif" font-size="13" lengthAdjust="spacing" textLength="127" x="83.5" y="291.9199">&#1085;&#1072;&#1078;&#1072;&#1090;&#1100; "&#1057;&#1086;&#1093;&#1088;&#1072;&#1085;&#1080;&#1090;&#1100;"</text><polygon fill="#181818" points="614.5,321.9727,624.5,325.9727,614.5,329.9727,618.5,325.9727" style="stroke:#181818;stroke-width:1.0;"/><line style="stroke:#181818;stroke-width:1.0;" x1="394.5" x2="620.5" y1="325.9727" y2="325.9727"/><text fill="#000000" font-family="sans-serif" font-size="13" lengthAdjust="spacing" textLength="171" x="401.5" y="321.2305">&#1087;&#1086;&#1076;&#1090;&#1074;&#1077;&#1088;&#1076;&#1080;&#1090;&#1100; &#1089;&#1086;&#1093;&#1088;&#1072;&#1085;&#1085;&#1077;&#1085;&#1080;&#1077;</text><polygon fill="#181818" points="853.5,351.2832,863.5,355.2832,853.5,359.2832,857.5,355.2832" style="stroke:#181818;stroke-width:1.0;"/><line style="stroke:#181818;stroke-width:1.0;" x1="636.5" x2="859.5" y1="355.2832" y2="355.2832"/><text fill="#000000" font-family="sans-serif" font-size="13" lengthAdjust="spacing" textLength="205" x="643.5" y="350.541">&#1087;&#1077;&#1088;&#1077;&#1084;&#1077;&#1089;&#1090;&#1080;&#1090;&#1100; &#1092;&#1072;&#1081;&#1083; &#1074; &#1093;&#1088;&#1072;&#1085;&#1080;&#1083;&#1080;&#1097;&#1077;</text><polygon fill="#181818" points="405.5,380.5938,395.5,384.5938,405.5,388.5938,401.5,384.5938" style="stroke:#181818;stroke-width:1.0;"/><line style="stroke:#181818;stroke-width:1.0;" x1="399.5" x2="625.5" y1="384.5938" y2="384.5938"/><text fill="#000000" font-family="sans-serif" font-size="13" lengthAdjust="spacing" textLength="97" x="411.5" y="379.8516">&#1060;&#1072;&#1081;&#1083; &#1089;&#1086;&#1093;&#1088;&#1072;&#1085;&#1077;&#1085;</text><line style="stroke:#000000;stroke-width:1.0;stroke-dasharray:2.0,2.0;" x1="10" x2="947" y1="393.5938" y2="393.5938"/><text fill="#000000" font-family="sans-serif" font-size="11" font-weight="bold" lengthAdjust="spacing" textLength="138" x="15" y="404.2285">[&#1085;&#1077;&#1082;&#1086;&#1088;&#1088;&#1077;&#1082;&#1090;&#1085;&#1099;&#1081; &#1092;&#1086;&#1088;&#1084;&#1072;&#1090;]</text><polygon fill="#181818" points="405.5,424.8594,395.5,428.8594,405.5,432.8594,401.5,428.8594" style="stroke:#181818;stroke-width:1.0;"/><line style="stroke:#181818;stroke-width:1.0;" x1="399.5" x2="625.5" y1="428.8594" y2="428.8594"/><text fill="#000000" font-family="sans-serif" font-size="13" lengthAdjust="spacing" textLength="208" x="411.5" y="424.1172">&#1086;&#1096;&#1080;&#1073;&#1082;&#1072; "&#1053;&#1077;&#1082;&#1086;&#1088;&#1088;&#1077;&#1082;&#1090;&#1085;&#1099;&#1081; &#1092;&#1086;&#1088;&#1084;&#1072;&#1090;"</text><!--SRC=[ZLBDJi906BplKtpfdHSWnZjdmmEiq9Wc10biF8DeWj5urOin9dglbMA1jhx2js_aVDkk_4GIUcc-xinyCxFL7NCv97wrOqxvXqkUSym9n_OQyze-A3NGGnDree7k6mhucGivicDx0y3IJWBI8sgtzc1ldDc9qyWvTX0zY5HN6tskHo407rWOSy4Phm6zuvGW6FCIOyc9Ovp1cRu8bJhiZXgdsDqadAKEK-0jUpC2B0CyvP9aAa1S214aNc4imLdPAQmyuUWBWQRy3Ii01AhT4cLOfYtjUKttHadfZeckj0bTE45N9E60WHoEcNbMYI4N4L9Azupum2UdlOBdmjxpSWUd24-jMxVH93i1uDRNLmLA96NYb7BNGc6dzb6inrLCfuHK9utQu7kT0Pbz-eKmOKsWHrI-tQXS-9wfmA_ST29YaAbQcVjUjkCKpdp6wR_9_suYzxUyUn-SqCQ3_wyE9jzPN2KFU_WttNJKpJZLIhIqCwpy12z66Iz7A0HOr-_-0W00]--></g></svg>