<?xml version="1.0" encoding="us-ascii" standalone="no"?><svg xmlns="http://www.w3.org/2000/svg" xmlns:xlink="http://www.w3.org/1999/xlink" contentStyleType="text/css" height="521px" preserveAspectRatio="none" style="width:2228px;height:521px;background:#FFFFFF;" version="1.1" viewBox="0 0 2228 521" width="2228px" zoomAndPan="magnify"><defs/><g><!--cluster ????? ???????--><g id="cluster_&#1054;&#1073;&#1097;&#1080;&#1077; &#1092;&#1091;&#1085;&#1082;&#1094;&#1080;&#1080;"><rect fill="none" height="89.84" rx="2.5" ry="2.5" style="stroke:#181818;stroke-width:1.0;" width="588" x="716.73" y="425.97"/><text fill="#000000" font-family="sans-serif" font-size="14" font-weight="bold" lengthAdjust="spacing" textLength="121" x="950.23" y="441.5052">&#1054;&#1073;&#1097;&#1080;&#1077; &#1092;&#1091;&#1085;&#1082;&#1094;&#1080;&#1080;</text></g><!--cluster ??????? ??? ????????--><g id="cluster_&#1060;&#1091;&#1085;&#1082;&#1094;&#1080;&#1080; &#1076;&#1083;&#1103; &#1089;&#1090;&#1091;&#1076;&#1077;&#1085;&#1090;&#1072;"><rect fill="none" height="97.51" rx="2.5" ry="2.5" style="stroke:#181818;stroke-width:1.0;" width="840" x="104.73" y="266.47"/><text fill="#000000" font-family="sans-serif" font-size="14" font-weight="bold" lengthAdjust="spacing" textLength="165" x="442.23" y="282.0052">&#1060;&#1091;&#1085;&#1082;&#1094;&#1080;&#1080; &#1076;&#1083;&#1103; &#1089;&#1090;&#1091;&#1076;&#1077;&#1085;&#1090;&#1072;</text></g><!--cluster ??????? ??? ?????????????--><g id="cluster_&#1060;&#1091;&#1085;&#1082;&#1094;&#1080;&#1080; &#1076;&#1083;&#1103; &#1087;&#1088;&#1077;&#1087;&#1086;&#1076;&#1072;&#1074;&#1072;&#1090;&#1077;&#1083;&#1103;"><rect fill="none" height="94.25" rx="2.5" ry="2.5" style="stroke:#181818;stroke-width:1.0;" width="636" x="1160.73" y="268.1"/><text fill="#000000" font-family="sans-serif" font-size="14" font-weight="bold" lengthAdjust="spacing" textLength="211" x="1373.23" y="283.6352">&#1060;&#1091;&#1085;&#1082;&#1094;&#1080;&#1080; &#1076;&#1083;&#1103; &#1087;&#1088;&#1077;&#1087;&#1086;&#1076;&#1072;&#1074;&#1072;&#1090;&#1077;&#1083;&#1103;</text></g><g id="elem_UC1"><ellipse cx="1002.7294" cy="480.3879" fill="#F1F1F1" rx="81.2394" ry="18.6479" style="stroke:#181818;stroke-width:0.5;"/><text fill="#000000" font-family="sans-serif" font-size="14" lengthAdjust="spacing" textLength="121" x="942.2294" y="483.6789">&#1055;&#1088;&#1086;&#1089;&#1084;&#1086;&#1090;&#1088; &#1082;&#1091;&#1088;&#1089;&#1086;&#1074;</text></g><g id="elem_UC4"><ellipse cx="809.7316" cy="480.3943" fill="#F1F1F1" rx="76.6216" ry="17.7243" style="stroke:#181818;stroke-width:0.5;"/><text fill="#000000" font-family="sans-serif" font-size="14" lengthAdjust="spacing" textLength="110" x="754.7316" y="483.6853">&#1054;&#1073;&#1097;&#1077;&#1085;&#1080;&#1077; &#1074; &#1095;&#1072;&#1090;&#1077;</text></g><g id="elem_UC9"><ellipse cx="1203.7284" cy="480.3897" fill="#F1F1F1" rx="85.0984" ry="19.4197" style="stroke:#181818;stroke-width:0.5;"/><text fill="#000000" font-family="sans-serif" font-size="14" lengthAdjust="spacing" textLength="130" x="1138.7284" y="483.6807">&#1055;&#1088;&#1086;&#1089;&#1084;&#1086;&#1090;&#1088; &#1086;&#1090;&#1079;&#1099;&#1074;&#1086;&#1074;</text></g><g id="elem_UC2"><ellipse cx="196.7252" cy="324.729" fill="#F1F1F1" rx="75.7952" ry="17.559" style="stroke:#181818;stroke-width:0.5;"/><text fill="#000000" font-family="sans-serif" font-size="14" lengthAdjust="spacing" textLength="108" x="142.7252" y="328.0201">&#1048;&#1079;&#1091;&#1095;&#1077;&#1085;&#1080;&#1077; &#1082;&#1091;&#1088;&#1089;&#1072;</text></g><g id="elem_UC5"><ellipse cx="411.7289" cy="324.7338" fill="#F1F1F1" rx="104.2689" ry="23.2538" style="stroke:#181818;stroke-width:0.5;"/><text fill="#000000" font-family="sans-serif" font-size="14" lengthAdjust="spacing" textLength="173" x="325.2289" y="328.0248">&#1055;&#1088;&#1086;&#1089;&#1084;&#1086;&#1090;&#1088; &#1089;&#1077;&#1088;&#1090;&#1080;&#1092;&#1080;&#1082;&#1072;&#1090;&#1086;&#1074;</text></g><g id="elem_UC6"><ellipse cx="845.725" cy="324.735" fill="#F1F1F1" rx="83.375" ry="19.075" style="stroke:#181818;stroke-width:0.5;"/><text fill="#000000" font-family="sans-serif" font-size="14" lengthAdjust="spacing" textLength="126" x="782.725" y="328.026">&#1055;&#1088;&#1086;&#1089;&#1084;&#1086;&#1090;&#1088; &#1086;&#1094;&#1077;&#1085;&#1086;&#1082;</text></g><g id="elem_UC8"><ellipse cx="638.7334" cy="324.7287" fill="#F1F1F1" rx="88.1434" ry="20.0287" style="stroke:#181818;stroke-width:0.5;"/><text fill="#000000" font-family="sans-serif" font-size="14" lengthAdjust="spacing" textLength="137" x="570.2334" y="328.0197">&#1053;&#1072;&#1087;&#1080;&#1089;&#1072;&#1085;&#1080;&#1077; &#1086;&#1090;&#1079;&#1099;&#1074;&#1086;&#1074;</text></g><g id="elem_UC3"><ellipse cx="1253.7323" cy="324.7305" fill="#F1F1F1" rx="77.4523" ry="17.8905" style="stroke:#181818;stroke-width:0.5;"/><text fill="#000000" font-family="sans-serif" font-size="14" lengthAdjust="spacing" textLength="112" x="1197.7323" y="328.0215">&#1057;&#1086;&#1079;&#1076;&#1072;&#1085;&#1080;&#1077; &#1082;&#1091;&#1088;&#1089;&#1072;</text></g><g id="elem_UC7"><ellipse cx="1462.7303" cy="324.7341" fill="#F1F1F1" rx="96.1203" ry="21.6241" style="stroke:#181818;stroke-width:0.5;"/><text fill="#000000" font-family="sans-serif" font-size="14" lengthAdjust="spacing" textLength="155" x="1385.2303" y="328.0251">&#1055;&#1088;&#1086;&#1089;&#1090;&#1072;&#1074;&#1083;&#1077;&#1085;&#1080;&#1077; &#1086;&#1094;&#1077;&#1085;&#1086;&#1082;</text></g><g id="elem_UC10"><ellipse cx="1687.73" cy="324.728" fill="#F1F1F1" rx="93.44" ry="21.088" style="stroke:#181818;stroke-width:0.5;"/><text fill="#000000" font-family="sans-serif" font-size="14" lengthAdjust="spacing" textLength="149" x="1613.23" y="328.019">&#1055;&#1088;&#1086;&#1089;&#1084;&#1086;&#1090;&#1088; &#1072;&#1085;&#1072;&#1083;&#1080;&#1090;&#1080;&#1082;&#1080;</text></g><!--entity ????????????--><g id="elem_&#1055;&#1086;&#1083;&#1100;&#1079;&#1086;&#1074;&#1072;&#1090;&#1077;&#1083;&#1100;"><ellipse cx="1123.73" cy="14" fill="#F1F1F1" rx="8" ry="8" style="stroke:#181818;stroke-width:0.5;"/><path d="M1123.73,22 L1123.73,49 M1110.73,30 L1136.73,30 M1123.73,49 L1110.73,64 M1123.73,49 L1136.73,64 " fill="none" style="stroke:#181818;stroke-width:0.5;"/><text fill="#000000" font-family="sans-serif" font-size="14" lengthAdjust="spacing" textLength="95" x="1076.23" y="79.0352">&#1055;&#1086;&#1083;&#1100;&#1079;&#1086;&#1074;&#1072;&#1090;&#1077;&#1083;&#1100;</text></g><!--entity ???????--><g id="elem_&#1057;&#1090;&#1091;&#1076;&#1077;&#1085;&#1090;"><ellipse cx="411.73" cy="151.48" fill="#F1F1F1" rx="8" ry="8" style="stroke:#181818;stroke-width:0.5;"/><path d="M411.73,159.48 L411.73,186.48 M398.73,167.48 L424.73,167.48 M411.73,186.48 L398.73,201.48 M411.73,186.48 L424.73,201.48 " fill="none" style="stroke:#181818;stroke-width:0.5;"/><text fill="#000000" font-family="sans-serif" font-size="14" lengthAdjust="spacing" textLength="57" x="383.23" y="216.5152">&#1057;&#1090;&#1091;&#1076;&#1077;&#1085;&#1090;</text></g><!--entity ?????????????--><g id="elem_&#1055;&#1088;&#1077;&#1087;&#1086;&#1076;&#1072;&#1074;&#1072;&#1090;&#1077;&#1083;&#1100;"><ellipse cx="1123.73" cy="151.48" fill="#F1F1F1" rx="8" ry="8" style="stroke:#181818;stroke-width:0.5;"/><path d="M1123.73,159.48 L1123.73,186.48 M1110.73,167.48 L1136.73,167.48 M1123.73,186.48 L1110.73,201.48 M1123.73,186.48 L1136.73,201.48 " fill="none" style="stroke:#181818;stroke-width:0.5;"/><text fill="#000000" font-family="sans-serif" font-size="14" lengthAdjust="spacing" textLength="107" x="1070.23" y="216.5152">&#1055;&#1088;&#1077;&#1087;&#1086;&#1076;&#1072;&#1074;&#1072;&#1090;&#1077;&#1083;&#1100;</text></g><!--entity ???????????????????? ????????????--><g id="elem_&#1053;&#1077;&#1079;&#1072;&#1088;&#1077;&#1075;&#1080;&#1089;&#1090;&#1088;&#1080;&#1088;&#1086;&#1074;&#1072;&#1085;&#1085;&#1099;&#1081; &#1087;&#1086;&#1083;&#1100;&#1079;&#1086;&#1074;&#1072;&#1090;&#1077;&#1083;&#1100;"><ellipse cx="1948.73" cy="294.98" fill="#F1F1F1" rx="8" ry="8" style="stroke:#181818;stroke-width:0.5;"/><path d="M1948.73,302.98 L1948.73,329.98 M1935.73,310.98 L1961.73,310.98 M1948.73,329.98 L1935.73,344.98 M1948.73,329.98 L1961.73,344.98 " fill="none" style="stroke:#181818;stroke-width:0.5;"/><text fill="#000000" font-family="sans-serif" font-size="14" lengthAdjust="spacing" textLength="266" x="1815.73" y="360.0152">&#1053;&#1077;&#1079;&#1072;&#1088;&#1077;&#1075;&#1080;&#1089;&#1090;&#1088;&#1080;&#1088;&#1086;&#1074;&#1072;&#1085;&#1085;&#1099;&#1081; &#1087;&#1086;&#1083;&#1100;&#1079;&#1086;&#1074;&#1072;&#1090;&#1077;&#1083;&#1100;</text></g><!--entity ????????????--><g id="elem_&#1058;&#1077;&#1093;&#1087;&#1086;&#1076;&#1076;&#1077;&#1088;&#1078;&#1082;&#1072;"><ellipse cx="2168.73" cy="294.98" fill="#F1F1F1" rx="8" ry="8" style="stroke:#181818;stroke-width:0.5;"/><path d="M2168.73,302.98 L2168.73,329.98 M2155.73,310.98 L2181.73,310.98 M2168.73,329.98 L2155.73,344.98 M2168.73,329.98 L2181.73,344.98 " fill="none" style="stroke:#181818;stroke-width:0.5;"/><text fill="#000000" font-family="sans-serif" font-size="14" lengthAdjust="spacing" textLength="105" x="2116.23" y="360.0152">&#1058;&#1077;&#1093;&#1087;&#1086;&#1076;&#1076;&#1077;&#1088;&#1078;&#1082;&#1072;</text></g><!--reverse link ???????????? to ???????--><g id="link_&#1055;&#1086;&#1083;&#1100;&#1079;&#1086;&#1074;&#1072;&#1090;&#1077;&#1083;&#1100;_&#1057;&#1090;&#1091;&#1076;&#1077;&#1085;&#1090;"><path d="M1058.2274,57.2053 C921.5074,83.2253 549.48,154.02 440.41,174.77 " fill="none" id="&#1055;&#1086;&#1083;&#1100;&#1079;&#1086;&#1074;&#1072;&#1090;&#1077;&#1083;&#1100;-backto-&#1057;&#1090;&#1091;&#1076;&#1077;&#1085;&#1090;" style="stroke:#181818;stroke-width:1.0;"/><polygon fill="none" points="1075.91,53.84,1057.1056,51.3111,1059.3491,63.0995,1075.91,53.84" style="stroke:#181818;stroke-width:1.0;"/></g><!--reverse link ???????????? to ?????????????--><g id="link_&#1055;&#1086;&#1083;&#1100;&#1079;&#1086;&#1074;&#1072;&#1090;&#1077;&#1083;&#1100;_&#1055;&#1088;&#1077;&#1087;&#1086;&#1076;&#1072;&#1074;&#1072;&#1090;&#1077;&#1083;&#1100;"><path d="M1123.73,100.48 C1123.73,119.27 1123.73,123.93 1123.73,142.69 " fill="none" id="&#1055;&#1086;&#1083;&#1100;&#1079;&#1086;&#1074;&#1072;&#1090;&#1077;&#1083;&#1100;-backto-&#1055;&#1088;&#1077;&#1087;&#1086;&#1076;&#1072;&#1074;&#1072;&#1090;&#1077;&#1083;&#1100;" style="stroke:#181818;stroke-width:1.0;"/><polygon fill="none" points="1123.73,82.48,1117.73,100.48,1129.73,100.48,1123.73,82.48" style="stroke:#181818;stroke-width:1.0;"/></g><!--reverse link ???????????? to ???????????????????? ????????????--><g id="link_&#1055;&#1086;&#1083;&#1100;&#1079;&#1086;&#1074;&#1072;&#1090;&#1077;&#1083;&#1100;_&#1053;&#1077;&#1079;&#1072;&#1088;&#1077;&#1075;&#1080;&#1089;&#1090;&#1088;&#1080;&#1088;&#1086;&#1074;&#1072;&#1085;&#1085;&#1099;&#1081; &#1087;&#1086;&#1083;&#1100;&#1079;&#1086;&#1074;&#1072;&#1090;&#1077;&#1083;&#1100;"><path d="M1188.9136,63.1133 C1299.9336,94.6833 1565.82,172.48 1796.73,258.47 C1819.07,266.79 1842.9,276.58 1864.91,286 " fill="none" id="&#1055;&#1086;&#1083;&#1100;&#1079;&#1086;&#1074;&#1072;&#1090;&#1077;&#1083;&#1100;-backto-&#1053;&#1077;&#1079;&#1072;&#1088;&#1077;&#1075;&#1080;&#1089;&#1090;&#1088;&#1080;&#1088;&#1086;&#1074;&#1072;&#1085;&#1085;&#1099;&#1081; &#1087;&#1086;&#1083;&#1100;&#1079;&#1086;&#1074;&#1072;&#1090;&#1077;&#1083;&#1100;" style="stroke:#181818;stroke-width:1.0;"/><polygon fill="none" points="1171.6,58.19,1187.2725,68.8845,1190.5547,57.3422,1171.6,58.19" style="stroke:#181818;stroke-width:1.0;"/></g><!--link ??????? to UC1--><g id="link_&#1057;&#1090;&#1091;&#1076;&#1077;&#1085;&#1090;_UC1"><path d="M382.89,184.95 C313.27,192.19 139.2,214.4 104.73,258.47 C73.65,298.21 70.1,335.3 104.73,371.98 C165.78,436.64 818.95,391.15 903.73,417.97 C933.24,427.3 958.0883,443.7564 977.1283,458.4364 " fill="none" id="&#1057;&#1090;&#1091;&#1076;&#1077;&#1085;&#1090;-to-UC1" style="stroke:#181818;stroke-width:1.0;"/><polygon fill="#181818" points="981.88,462.1,977.1949,453.4369,977.9203,459.047,972.3101,459.7724,981.88,462.1" style="stroke:#181818;stroke-width:1.0;"/></g><!--link ??????? to UC2--><g id="link_&#1057;&#1090;&#1091;&#1076;&#1077;&#1085;&#1090;_UC2"><path d="M382.86,199.67 C357.97,214.86 321.17,237.64 289.73,258.47 C265.23,274.71 242.6259,290.6535 223.9259,304.0635 " fill="none" id="&#1057;&#1090;&#1091;&#1076;&#1077;&#1085;&#1090;-to-UC2" style="stroke:#181818;stroke-width:1.0;"/><polygon fill="#181818" points="219.05,307.56,228.6948,305.5658,223.1132,304.6462,224.0328,299.0646,219.05,307.56" style="stroke:#181818;stroke-width:1.0;"/></g><!--link ??????? to UC4--><g id="link_&#1057;&#1090;&#1091;&#1076;&#1077;&#1085;&#1090;_UC4"><path d="M382.75,182.92 C303.35,185.48 85.34,197.22 41.73,249.47 C6.84,291.27 6,330.9 41.73,371.98 C87.1,424.13 547.9747,461.3201 730.8447,474.1501 " fill="none" id="&#1057;&#1090;&#1091;&#1076;&#1077;&#1085;&#1090;-to-UC4" style="stroke:#181818;stroke-width:1.0;"/><polygon fill="#181818" points="736.83,474.57,728.132,469.9499,731.8423,474.2201,727.5721,477.9303,736.83,474.57" style="stroke:#181818;stroke-width:1.0;"/></g><!--link ??????? to UC5--><g id="link_&#1057;&#1090;&#1091;&#1076;&#1077;&#1085;&#1090;_UC5"><path d="M411.73,219.78 C411.73,245.65 411.73,273.18 411.73,295.06 " fill="none" id="&#1057;&#1090;&#1091;&#1076;&#1077;&#1085;&#1090;-to-UC5" style="stroke:#181818;stroke-width:1.0;"/><polygon fill="#181818" points="411.73,301.06,415.73,292.06,411.73,296.06,407.73,292.06,411.73,301.06" style="stroke:#181818;stroke-width:1.0;"/></g><!--link ??????? to UC6--><g id="link_&#1057;&#1090;&#1091;&#1076;&#1077;&#1085;&#1090;_UC6"><path d="M440.38,185.38 C499.33,192.59 637.63,213.27 744.73,258.47 C773.77,270.73 798.8906,287.6292 818.5506,302.3792 " fill="none" id="&#1057;&#1090;&#1091;&#1076;&#1077;&#1085;&#1090;-to-UC6" style="stroke:#181818;stroke-width:1.0;"/><polygon fill="#181818" points="823.35,305.98,818.5514,297.3792,819.3505,302.9793,813.7504,303.7784,823.35,305.98" style="stroke:#181818;stroke-width:1.0;"/></g><!--link ??????? to UC8--><g id="link_&#1057;&#1090;&#1091;&#1076;&#1077;&#1085;&#1090;_UC8"><path d="M440.48,200.15 C483.91,227.22 560.6979,275.0866 604.4079,302.3266 " fill="none" id="&#1057;&#1090;&#1091;&#1076;&#1077;&#1085;&#1090;-to-UC8" style="stroke:#181818;stroke-width:1.0;"/><polygon fill="#181818" points="609.5,305.5,603.9774,297.3452,605.2566,302.8555,599.7462,304.1346,609.5,305.5" style="stroke:#181818;stroke-width:1.0;"/></g><!--link ????????????? to UC1--><g id="link_&#1055;&#1088;&#1077;&#1087;&#1086;&#1076;&#1072;&#1074;&#1072;&#1090;&#1077;&#1083;&#1100;_UC1"><path d="M1101.4,219.76 C1077.83,260.93 1041.18,329.59 1019.73,392.97 C1011.94,416 1008.0814,437.8151 1005.6614,455.5451 " fill="none" id="&#1055;&#1088;&#1077;&#1087;&#1086;&#1076;&#1072;&#1074;&#1072;&#1090;&#1077;&#1083;&#1100;-to-UC1" style="stroke:#181818;stroke-width:1.0;"/><polygon fill="#181818" points="1004.85,461.49,1010.0304,453.1136,1005.5262,456.5359,1002.1039,452.0317,1004.85,461.49" style="stroke:#181818;stroke-width:1.0;"/></g><!--link ????????????? to UC3--><g id="link_&#1055;&#1088;&#1077;&#1087;&#1086;&#1076;&#1072;&#1074;&#1072;&#1090;&#1077;&#1083;&#1100;_UC3"><path d="M1158.23,219.78 C1184.25,248.1 1214.6602,281.2021 1234.2702,302.5421 " fill="none" id="&#1055;&#1088;&#1077;&#1087;&#1086;&#1076;&#1072;&#1074;&#1072;&#1090;&#1077;&#1083;&#1100;-to-UC3" style="stroke:#181818;stroke-width:1.0;"/><polygon fill="#181818" points="1238.33,306.96,1235.1856,297.6266,1234.9468,303.2784,1229.295,303.0396,1238.33,306.96" style="stroke:#181818;stroke-width:1.0;"/></g><!--link ????????????? to UC4--><g id="link_&#1055;&#1088;&#1077;&#1087;&#1086;&#1076;&#1072;&#1074;&#1072;&#1090;&#1077;&#1083;&#1100;_UC4"><path d="M1091.22,219.74 C1056.43,259.15 998.91,322.18 944.73,371.98 C907.02,406.64 864.2854,439.3541 836.8554,459.6241 " fill="none" id="&#1055;&#1088;&#1077;&#1087;&#1086;&#1076;&#1072;&#1074;&#1072;&#1090;&#1077;&#1083;&#1100;-to-UC4" style="stroke:#181818;stroke-width:1.0;"/><polygon fill="#181818" points="832.03,463.19,841.6454,461.0582,836.0512,460.2185,836.8909,454.6243,832.03,463.19" style="stroke:#181818;stroke-width:1.0;"/></g><!--link ????????????? to UC6--><g id="link_&#1055;&#1088;&#1077;&#1087;&#1086;&#1076;&#1072;&#1074;&#1072;&#1090;&#1077;&#1083;&#1100;_UC6"><path d="M1069.84,200.47 C1036.22,212.65 992.51,229.98 955.73,249.47 C924.17,266.19 895.3157,286.311 873.6657,302.401 " fill="none" id="&#1055;&#1088;&#1077;&#1087;&#1086;&#1076;&#1072;&#1074;&#1072;&#1090;&#1077;&#1083;&#1100;-to-UC6" style="stroke:#181818;stroke-width:1.0;"/><polygon fill="#181818" points="868.85,305.98,878.4595,303.822,872.8631,302.9975,873.6876,297.4011,868.85,305.98" style="stroke:#181818;stroke-width:1.0;"/></g><!--link ????????????? to UC7--><g id="link_&#1055;&#1088;&#1077;&#1087;&#1086;&#1076;&#1072;&#1074;&#1072;&#1090;&#1077;&#1083;&#1100;_UC7"><path d="M1177.58,197.28 C1223.87,210.96 1291.95,232.89 1348.73,258.47 C1378.05,271.68 1404.5488,286.9712 1427.0288,300.8912 " fill="none" id="&#1055;&#1088;&#1077;&#1087;&#1086;&#1076;&#1072;&#1074;&#1072;&#1090;&#1077;&#1083;&#1100;-to-UC7" style="stroke:#181818;stroke-width:1.0;"/><polygon fill="#181818" points="1432.13,304.05,1426.584,295.9111,1427.879,301.4177,1422.3724,302.7127,1432.13,304.05" style="stroke:#181818;stroke-width:1.0;"/></g><!--link ????????????? to UC9--><g id="link_&#1055;&#1088;&#1077;&#1087;&#1086;&#1076;&#1072;&#1074;&#1072;&#1090;&#1077;&#1083;&#1100;_UC9"><path d="M1128.92,219.81 C1134.76,258.46 1145.45,320.15 1160.73,371.98 C1170.16,403.96 1182.9624,434.1654 1192.5424,455.2954 " fill="none" id="&#1055;&#1088;&#1077;&#1087;&#1086;&#1076;&#1072;&#1074;&#1072;&#1090;&#1077;&#1083;&#1100;-to-UC9" style="stroke:#181818;stroke-width:1.0;"/><polygon fill="#181818" points="1195.02,460.76,1194.9467,450.9114,1192.9554,456.2062,1187.6606,454.2148,1195.02,460.76" style="stroke:#181818;stroke-width:1.0;"/></g><!--link ????????????? to UC10--><g id="link_&#1055;&#1088;&#1077;&#1087;&#1086;&#1076;&#1072;&#1074;&#1072;&#1090;&#1077;&#1083;&#1100;_UC10"><path d="M1177.65,184.97 C1264.2,190.76 1438.46,208.14 1576.73,258.47 C1607.4,269.64 1634.2392,285.9003 1655.8992,300.7303 " fill="none" id="&#1055;&#1088;&#1077;&#1087;&#1086;&#1076;&#1072;&#1074;&#1072;&#1090;&#1077;&#1083;&#1100;-to-UC10" style="stroke:#181818;stroke-width:1.0;"/><polygon fill="#181818" points="1660.85,304.12,1655.6836,295.735,1656.7244,301.2953,1651.1641,302.336,1660.85,304.12" style="stroke:#181818;stroke-width:1.0;"/></g><!--link ???????????????????? ???????????? to UC1--><g id="link_&#1053;&#1077;&#1079;&#1072;&#1088;&#1077;&#1075;&#1080;&#1089;&#1090;&#1088;&#1080;&#1088;&#1086;&#1074;&#1072;&#1085;&#1085;&#1099;&#1081; &#1087;&#1086;&#1083;&#1100;&#1079;&#1086;&#1074;&#1072;&#1090;&#1077;&#1083;&#1100;_UC1"><path d="M1837.05,363.38 C1823.59,366.83 1809.93,369.83 1796.73,371.98 C1755.48,378.71 1079.85,370.31 1044.73,392.97 C1021.04,408.26 1011.6295,435.1624 1007.0795,455.6724 " fill="none" id="&#1053;&#1077;&#1079;&#1072;&#1088;&#1077;&#1075;&#1080;&#1089;&#1090;&#1088;&#1080;&#1088;&#1086;&#1074;&#1072;&#1085;&#1085;&#1099;&#1081; &#1087;&#1086;&#1083;&#1100;&#1079;&#1086;&#1074;&#1072;&#1090;&#1077;&#1083;&#1100;-to-UC1" style="stroke:#181818;stroke-width:1.0;"/><polygon fill="#181818" points="1005.78,461.53,1011.6343,453.6099,1006.8629,456.6487,1003.8241,451.8773,1005.78,461.53" style="stroke:#181818;stroke-width:1.0;"/></g><!--link ???????????? to UC1--><g id="link_&#1058;&#1077;&#1093;&#1087;&#1086;&#1076;&#1076;&#1077;&#1088;&#1078;&#1082;&#1072;_UC1"><path d="M2118.81,363.38 C2112.31,366.85 2105.54,369.86 2098.73,371.98 C1991.26,405.5 1188.84,347.77 1085.73,392.97 C1053.34,407.17 1030.6794,435.6152 1016.8794,456.4852 " fill="none" id="&#1058;&#1077;&#1093;&#1087;&#1086;&#1076;&#1076;&#1077;&#1088;&#1078;&#1082;&#1072;-to-UC1" style="stroke:#181818;stroke-width:1.0;"/><polygon fill="#181818" points="1013.57,461.49,1021.8706,456.189,1016.3278,457.3193,1015.1975,451.7765,1013.57,461.49" style="stroke:#181818;stroke-width:1.0;"/></g><!--link ???????????? to UC9--><g id="link_&#1058;&#1077;&#1093;&#1087;&#1086;&#1076;&#1076;&#1077;&#1088;&#1078;&#1082;&#1072;_UC9"><path d="M2117.4,363.38 C2111.31,366.7 2105.02,369.67 2098.73,371.98 C1949.97,426.56 1482.5374,461.6111 1291.1574,474.0411 " fill="none" id="&#1058;&#1077;&#1093;&#1087;&#1086;&#1076;&#1076;&#1077;&#1088;&#1078;&#1082;&#1072;-to-UC9" style="stroke:#181818;stroke-width:1.0;"/><polygon fill="#181818" points="1285.17,474.43,1294.4103,477.8383,1290.1595,474.1059,1293.8918,469.8551,1285.17,474.43" style="stroke:#181818;stroke-width:1.0;"/></g><!--link UC8 to UC9--><g id="link_UC8_UC9"><path d="M672.65,343.58 C693.01,353.51 719.73,365.2 744.73,371.98 C899.13,413.84 950.91,364.62 1101.73,417.97 C1130.57,428.17 1155.2771,443.6233 1175.1071,457.7833 " fill="none" id="UC8-to-UC9" style="stroke:#181818;stroke-width:1.0;stroke-dasharray:7.0,7.0;"/><polygon fill="#181818" points="1179.99,461.27,1174.9901,452.7846,1175.9209,458.3644,1170.3412,459.2952,1179.99,461.27" style="stroke:#181818;stroke-width:1.0;"/><text fill="#000000" font-family="sans-serif" font-size="13" lengthAdjust="spacing" textLength="57" x="1076.61" y="406.5384">&#171;extend&#187;</text></g><!--SRC=[hLJDIa916DtFKtovL_enon0X8jf4YwW7kDWjWZ3e6WGLc9OH1MxRL1GzmCqoRvhw2j-yKMV6lzAvZGjTU9tFyvtld3DpPsh7tTtFkhIvkhArlB6slagP0yVpX70okSCZuYTkSKFUSGtF2lkom5MrxltzB0koo1yeDcMXtoFpABJHyS6-eIl23rZNK5UuTmxa1MZoUEOxKxW9kbl-8arY61_fZNhXghpgZe8A47nodNqXmeHJwYmQ7TPj0OVx-Rzn4Zx5aPl9ETcz0nTqZ_mcRpZWAibBo6zoNPQm329qAWYVOy_DE9v2AiajUS7V-CP80h8eyoY0FaAEHzihCqCj7N84eWTmXUHrHqWN7xUDm8Dhi5FvDIGfplzQUFsjcn1eGvP9vzBV3lP7_To3kGX1VNazFtvtqAn57NxYT80ya9TWg6jh0vtpTdCbFRp5zMvBOgZb0VlPLdkizrMBD2MoE5OYt0uvS-NHR9u1gcbOI3PpPdCgQJ0t1g6EcbomvQA6-k08LBI8DUYThcdbK_nzqIWQJUkJPopFcijnStdUN4wOoulgHWXxZGUoR90vEoHkXoJia0Kx93c6esaX9d093V89kMx71IHn8h0N58lf5IrHAkMUvDpiJZejVW00]--></g></svg>